<svg width="217" height="288" viewBox="0 0 217 288" fill="none" xmlns="http://www.w3.org/2000/svg">
<path d="M59.6985 288C80.2243 288 100.549 284.275 119.512 277.039C138.476 269.802 155.706 259.195 170.22 245.823C184.734 232.452 196.247 216.577 204.102 199.106C211.957 181.636 216.5 162.91 216.5 144C216.5 125.09 211.957 106.364 204.102 88.8936C196.247 71.4227 184.734 55.5483 170.22 42.1766C155.706 28.805 138.476 18.198 119.512 10.9613C100.549 3.72467 79.5258 -8.26598e-07 59 0L60.5 48.0883C74.1713 48.0883 86.9072 50.5691 99.5378 55.3891C112.168 60.2091 123.645 67.2739 133.312 76.1802C142.979 85.0864 150.647 95.6596 155.879 107.296C161.111 118.933 163.804 131.405 163.804 144C163.804 156.595 161.111 169.067 155.879 180.704C150.647 192.34 142.979 202.914 133.312 211.82C123.645 220.726 112.168 227.791 99.5378 232.611C86.9072 237.431 73.3698 239.912 59.6985 239.912V288Z" fill="url(#paint0_linear_41_1268)"/>
<path d="M11 0L59 0L63.1331 48.1192L11 48.0883V0Z" fill="url(#paint1_linear_41_1268)"/>
<path d="M11 120H54.2714C83.0457 120 106.372 141.49 106.372 168H11V120Z" fill="url(#paint2_linear_41_1268)"/>
<defs>
<linearGradient id="paint0_linear_41_1268" x1="-18.4523" y1="-4.9297e-06" x2="226.786" y2="96.2002" gradientUnits="userSpaceOnUse">
<stop stop-color="#E0220A"/>
<stop offset="1" stop-color="#F57D2F"/>
</linearGradient>
<linearGradient id="paint1_linear_41_1268" x1="-18.4523" y1="-4.9297e-06" x2="226.786" y2="96.2002" gradientUnits="userSpaceOnUse">
<stop stop-color="#E0220A"/>
<stop offset="1" stop-color="#F57D2F"/>
</linearGradient>
<linearGradient id="paint2_linear_41_1268" x1="-18.4523" y1="-4.9297e-06" x2="226.786" y2="96.2002" gradientUnits="userSpaceOnUse">
<stop stop-color="#E0220A"/>
<stop offset="1" stop-color="#F57D2F"/>
</linearGradient>
</defs>
</svg>
